<mxfile host="Electron" modified="2024-03-17T13:48:35.116Z" agent="Mozilla/5.0 (Macintosh; Intel Mac OS X 10_15_7) AppleWebKit/537.36 (KHTML, like Gecko) draw.io/24.0.4 Chrome/120.0.6099.109 Electron/28.1.0 Safari/537.36" etag="L2TMRkmmfdeDlJNLfuop" version="24.0.4" type="device">
  <diagram name="Page-1" id="TrVGcGaDL3QyNtiAeDpV">
    <mxGraphModel dx="1242" dy="793" grid="1" gridSize="10" guides="1" tooltips="1" connect="1" arrows="1" fold="1" page="1" pageScale="1" pageWidth="827" pageHeight="1169" math="0" shadow="0">
      <root>
        <mxCell id="0" />
        <mxCell id="1" parent="0" />
        <mxCell id="TbX-WALGLKv1bCYIb4RI-55" value="Auth Domain" style="rounded=1;whiteSpace=wrap;html=1;fillColor=none;dashed=1;verticalAlign=top;dashPattern=12 12;" parent="1" vertex="1">
          <mxGeometry x="10" y="10" width="400" height="120" as="geometry" />
        </mxCell>
        <mxCell id="TbX-WALGLKv1bCYIb4RI-57" value="Task Domain" style="rounded=1;whiteSpace=wrap;html=1;fillColor=none;dashed=1;verticalAlign=top;dashPattern=12 12;" parent="1" vertex="1">
          <mxGeometry x="10" y="150" width="400" height="400" as="geometry" />
        </mxCell>
        <mxCell id="TbX-WALGLKv1bCYIb4RI-56" value="Account Domain" style="rounded=1;whiteSpace=wrap;html=1;fillColor=none;dashed=1;verticalAlign=top;dashPattern=12 12;" parent="1" vertex="1">
          <mxGeometry x="430" y="10" width="596" height="540" as="geometry" />
        </mxCell>
        <mxCell id="TbX-WALGLKv1bCYIb4RI-41" style="edgeStyle=orthogonalEdgeStyle;rounded=0;orthogonalLoop=1;jettySize=auto;html=1;exitX=0;exitY=0.5;exitDx=0;exitDy=0;entryX=1;entryY=0.5;entryDx=0;entryDy=0;" parent="1" source="TbX-WALGLKv1bCYIb4RI-39" target="TbX-WALGLKv1bCYIb4RI-40" edge="1">
          <mxGeometry relative="1" as="geometry" />
        </mxCell>
        <mxCell id="TbX-WALGLKv1bCYIb4RI-59" style="edgeStyle=orthogonalEdgeStyle;rounded=0;orthogonalLoop=1;jettySize=auto;html=1;exitX=1;exitY=0.5;exitDx=0;exitDy=0;entryX=0;entryY=0.5;entryDx=0;entryDy=0;dashed=1;" parent="1" source="TbX-WALGLKv1bCYIb4RI-39" target="TbX-WALGLKv1bCYIb4RI-44" edge="1">
          <mxGeometry relative="1" as="geometry" />
        </mxCell>
        <mxCell id="TbX-WALGLKv1bCYIb4RI-60" style="edgeStyle=orthogonalEdgeStyle;rounded=0;orthogonalLoop=1;jettySize=auto;html=1;exitX=0.5;exitY=1;exitDx=0;exitDy=0;entryX=0.5;entryY=0;entryDx=0;entryDy=0;dashed=1;" parent="1" source="TbX-WALGLKv1bCYIb4RI-39" target="TbX-WALGLKv1bCYIb4RI-53" edge="1">
          <mxGeometry relative="1" as="geometry" />
        </mxCell>
        <mxCell id="TbX-WALGLKv1bCYIb4RI-39" value="Сотрудник" style="rounded=1;whiteSpace=wrap;html=1;" parent="1" vertex="1">
          <mxGeometry x="250" y="50" width="120" height="60" as="geometry" />
        </mxCell>
        <mxCell id="TbX-WALGLKv1bCYIb4RI-40" value="Роль" style="whiteSpace=wrap;html=1;rounded=1;" parent="1" vertex="1">
          <mxGeometry x="50" y="50" width="120" height="60" as="geometry" />
        </mxCell>
        <mxCell id="2oBH9ydRGOSROuu9o3cL-6" value="" style="edgeStyle=orthogonalEdgeStyle;rounded=0;orthogonalLoop=1;jettySize=auto;html=1;" edge="1" parent="1" source="TbX-WALGLKv1bCYIb4RI-42" target="2oBH9ydRGOSROuu9o3cL-5">
          <mxGeometry relative="1" as="geometry" />
        </mxCell>
        <mxCell id="2oBH9ydRGOSROuu9o3cL-17" value="" style="edgeStyle=orthogonalEdgeStyle;rounded=0;orthogonalLoop=1;jettySize=auto;html=1;" edge="1" parent="1" source="TbX-WALGLKv1bCYIb4RI-42" target="2oBH9ydRGOSROuu9o3cL-16">
          <mxGeometry relative="1" as="geometry" />
        </mxCell>
        <mxCell id="TbX-WALGLKv1bCYIb4RI-42" value="Лицевой счет" style="whiteSpace=wrap;html=1;rounded=1;" parent="1" vertex="1">
          <mxGeometry x="670" y="50" width="120" height="60" as="geometry" />
        </mxCell>
        <mxCell id="TbX-WALGLKv1bCYIb4RI-43" value="" style="edgeStyle=orthogonalEdgeStyle;rounded=0;orthogonalLoop=1;jettySize=auto;html=1;" parent="1" source="TbX-WALGLKv1bCYIb4RI-44" target="TbX-WALGLKv1bCYIb4RI-42" edge="1">
          <mxGeometry relative="1" as="geometry" />
        </mxCell>
        <mxCell id="2oBH9ydRGOSROuu9o3cL-15" value="" style="edgeStyle=orthogonalEdgeStyle;rounded=0;orthogonalLoop=1;jettySize=auto;html=1;" edge="1" parent="1" source="TbX-WALGLKv1bCYIb4RI-44" target="2oBH9ydRGOSROuu9o3cL-14">
          <mxGeometry relative="1" as="geometry" />
        </mxCell>
        <mxCell id="TbX-WALGLKv1bCYIb4RI-44" value="Сотрудник" style="rounded=1;whiteSpace=wrap;html=1;dashed=1;" parent="1" vertex="1">
          <mxGeometry x="470" y="50" width="120" height="60" as="geometry" />
        </mxCell>
        <mxCell id="TbX-WALGLKv1bCYIb4RI-49" value="" style="edgeStyle=orthogonalEdgeStyle;rounded=0;orthogonalLoop=1;jettySize=auto;html=1;" parent="1" source="TbX-WALGLKv1bCYIb4RI-50" target="TbX-WALGLKv1bCYIb4RI-54" edge="1">
          <mxGeometry relative="1" as="geometry" />
        </mxCell>
        <mxCell id="2oBH9ydRGOSROuu9o3cL-4" style="edgeStyle=orthogonalEdgeStyle;rounded=0;orthogonalLoop=1;jettySize=auto;html=1;dashed=1;" edge="1" parent="1" source="TbX-WALGLKv1bCYIb4RI-50" target="2oBH9ydRGOSROuu9o3cL-2">
          <mxGeometry relative="1" as="geometry" />
        </mxCell>
        <mxCell id="TbX-WALGLKv1bCYIb4RI-50" value="Задача" style="rounded=1;whiteSpace=wrap;html=1;" parent="1" vertex="1">
          <mxGeometry x="250" y="330" width="120" height="60" as="geometry" />
        </mxCell>
        <mxCell id="TbX-WALGLKv1bCYIb4RI-52" style="edgeStyle=orthogonalEdgeStyle;rounded=0;orthogonalLoop=1;jettySize=auto;html=1;exitX=0.5;exitY=1;exitDx=0;exitDy=0;" parent="1" source="TbX-WALGLKv1bCYIb4RI-53" target="TbX-WALGLKv1bCYIb4RI-50" edge="1">
          <mxGeometry relative="1" as="geometry" />
        </mxCell>
        <mxCell id="2oBH9ydRGOSROuu9o3cL-13" value="" style="edgeStyle=orthogonalEdgeStyle;rounded=0;orthogonalLoop=1;jettySize=auto;html=1;" edge="1" parent="1" source="TbX-WALGLKv1bCYIb4RI-53" target="2oBH9ydRGOSROuu9o3cL-12">
          <mxGeometry relative="1" as="geometry" />
        </mxCell>
        <mxCell id="TbX-WALGLKv1bCYIb4RI-53" value="Сотрудник" style="rounded=1;whiteSpace=wrap;html=1;dashed=1;" parent="1" vertex="1">
          <mxGeometry x="250" y="190" width="120" height="60" as="geometry" />
        </mxCell>
        <mxCell id="TbX-WALGLKv1bCYIb4RI-54" value="Статус" style="whiteSpace=wrap;html=1;rounded=1;" parent="1" vertex="1">
          <mxGeometry x="50" y="330" width="120" height="60" as="geometry" />
        </mxCell>
        <mxCell id="2oBH9ydRGOSROuu9o3cL-1" value="" style="edgeStyle=orthogonalEdgeStyle;rounded=0;orthogonalLoop=1;jettySize=auto;html=1;" edge="1" parent="1" source="2oBH9ydRGOSROuu9o3cL-2" target="2oBH9ydRGOSROuu9o3cL-3">
          <mxGeometry relative="1" as="geometry" />
        </mxCell>
        <mxCell id="2oBH9ydRGOSROuu9o3cL-8" style="edgeStyle=orthogonalEdgeStyle;rounded=0;orthogonalLoop=1;jettySize=auto;html=1;" edge="1" parent="1" source="2oBH9ydRGOSROuu9o3cL-2" target="2oBH9ydRGOSROuu9o3cL-5">
          <mxGeometry relative="1" as="geometry" />
        </mxCell>
        <mxCell id="2oBH9ydRGOSROuu9o3cL-2" value="Задача" style="rounded=1;whiteSpace=wrap;html=1;dashed=1;" vertex="1" parent="1">
          <mxGeometry x="470" y="330" width="120" height="60" as="geometry" />
        </mxCell>
        <mxCell id="2oBH9ydRGOSROuu9o3cL-3" value="Стоимость" style="whiteSpace=wrap;html=1;rounded=1;" vertex="1" parent="1">
          <mxGeometry x="470" y="470" width="120" height="60" as="geometry" />
        </mxCell>
        <mxCell id="2oBH9ydRGOSROuu9o3cL-10" value="" style="edgeStyle=orthogonalEdgeStyle;rounded=0;orthogonalLoop=1;jettySize=auto;html=1;" edge="1" parent="1" source="2oBH9ydRGOSROuu9o3cL-5" target="2oBH9ydRGOSROuu9o3cL-9">
          <mxGeometry relative="1" as="geometry" />
        </mxCell>
        <mxCell id="2oBH9ydRGOSROuu9o3cL-5" value="Транзакция" style="whiteSpace=wrap;html=1;rounded=1;" vertex="1" parent="1">
          <mxGeometry x="670" y="330" width="120" height="60" as="geometry" />
        </mxCell>
        <mxCell id="2oBH9ydRGOSROuu9o3cL-9" value="Сумма" style="rounded=1;whiteSpace=wrap;html=1;" vertex="1" parent="1">
          <mxGeometry x="670" y="470" width="120" height="60" as="geometry" />
        </mxCell>
        <mxCell id="2oBH9ydRGOSROuu9o3cL-12" value="Роль" style="whiteSpace=wrap;html=1;rounded=1;" vertex="1" parent="1">
          <mxGeometry x="50" y="190" width="120" height="60" as="geometry" />
        </mxCell>
        <mxCell id="2oBH9ydRGOSROuu9o3cL-14" value="Роль" style="whiteSpace=wrap;html=1;rounded=1;" vertex="1" parent="1">
          <mxGeometry x="470" y="190" width="120" height="60" as="geometry" />
        </mxCell>
        <mxCell id="2oBH9ydRGOSROuu9o3cL-16" value="Баланс" style="whiteSpace=wrap;html=1;rounded=1;" vertex="1" parent="1">
          <mxGeometry x="870" y="50" width="120" height="60" as="geometry" />
        </mxCell>
        <mxCell id="2oBH9ydRGOSROuu9o3cL-18" value="создается с нулевым балансом при репликации" style="rounded=0;whiteSpace=wrap;html=1;fillStyle=hatch;fillColor=#E6E6E6;" vertex="1" parent="1">
          <mxGeometry x="620" y="110" width="90" height="60" as="geometry" />
        </mxCell>
        <mxCell id="2oBH9ydRGOSROuu9o3cL-19" value="считается при репликации" style="rounded=0;whiteSpace=wrap;html=1;fillStyle=hatch;fillColor=#E6E6E6;shadow=0;textShadow=0;glass=0;" vertex="1" parent="1">
          <mxGeometry x="550" y="420" width="80" height="50" as="geometry" />
        </mxCell>
      </root>
    </mxGraphModel>
  </diagram>
</mxfile>
